# xmcd CD database file
#
# Track frame offsets:
#	150
#	25735
#	48533
#	78434
#	95072
#	117794
#	133119
#	157101
#	179240
#	197118
#	217494
#	241204
#	262637
#
# Disc length: 3763 seconds
#
# Revision: 1
# Processed by: cddbd v1.5.2PL0 Copyright (c) Steve Scherf et al.
# Submitted via: CDex 1.70beta2
#
DISCID=bf0eb10d
DTITLE=George Benson and Al Jarreau - Givin' It Up
DYEAR=2006
DGENRE=Jazz
TTITLE0=Breezin'
TTITLE1=Mornin'
TTITLE2='Long Come Tutu
TTITLE3=God Bless The Child
TTITLE4=Summer Breeze
TTITLE5=All I Am
TTITLE6=Ordinary People
TTITLE7=Let It Rain
TTITLE8=Givin' It Up For Love
TTITLE9=Every Time You Go Away
TTITLE10=Four
TTITLE11=Don't Start No Schtuff
TTITLE12=Bring It On Home To Me
EXTD=YEAR: 2006
EXTT0=
EXTT1=
EXTT2=
EXTT3=
EXTT4=
EXTT5=
EXTT6=
EXTT7=
EXTT8=
EXTT9=
EXTT10=
EXTT11=
EXTT12=
PLAYORDER=
